<?xml version="1.0" encoding="UTF-8"?>
<svg id="Capa_2" data-name="Capa 2" xmlns="http://www.w3.org/2000/svg" viewBox="0 0 144.6 91.71">
  <defs>
    <style>
      .cls-1 {
        fill: #312783;
      }

      .cls-2 {
        fill: #fff;
      }

      .cls-3 {
        fill: #fdc533;
      }

      .cls-4 {
        fill: #f39200;
      }

      .cls-5 {
        fill: #e30613;
      }

      .cls-6 {
        fill: #fefcfc;
      }

      .cls-7 {
        fill: #f9b233;
      }

      .cls-8, .cls-9 {
        fill: none;
      }

      .cls-9 {
        stroke: #f39200;
        stroke-miterlimit: 10;
        stroke-width: 2px;
      }

      .cls-10 {
        fill: #432918;
      }
    </style>
  </defs>
  <g id="Capa_1-2" data-name="Capa 1">
    <g>
      <path class="cls-6" d="M101.74,82.81c-.15-1.58,.93-2.74,.82-4.2-.21-2.74-1.33-4.23-4.27-4.82-4.3-.86-8.59-.37-12.85,.29-8.84,1.38-17.46,3.79-26.33,5.04-8.9,1.26-17.74,1.5-26.29-1.73-9.82-3.7-16.66-10.2-19.33-19.93-2.59-9.42,.91-17.39,7.94-24.15,8.06-7.77,18.1-12.16,29.09-14.66,19.77-4.5,39.1-3.36,57.68,4.83,7.66,3.38,14.34,8.03,18.96,14.9,5.82,8.66,5.82,17.4,.51,26.3-2.13,3.57-5.02,6.58-8.27,9.02-5.21,3.92-11.05,7.06-17.65,9.09Z"/>
      <g>
        <path class="cls-2" d="M72.35,91.21c-18.91-.12-34.85-3.51-48.74-10.37-7.29-3.6-12.83-7.81-16.92-12.88C2.28,62.52,.16,56.39,.55,50.23c.39-6.12,3.24-11.99,8.26-16.95,7.52-7.45,17.26-12.69,30.65-16.5,10.22-2.9,21.01-4.38,32.07-4.38,1.35,0,2.72,.02,4.07,.07,18.24,.58,33.47,4.17,46.56,10.98,7.04,3.66,12.37,7.89,16.29,12.94,8.05,10.36,7.45,22.93-1.56,32.8-6.74,7.38-15.85,12.71-28.68,16.79-11.07,3.52-22.69,5.23-35.51,5.23h-.36Zm21.03-19.56c1.88,0,3.59,.16,5.25,.49,3.55,.71,5.33,2.73,5.61,6.34,.05,.66-.05,1.25-.2,1.78,5.06-1.87,9.9-4.52,14.37-7.89,3.3-2.49,5.94-5.36,7.84-8.54,5.06-8.49,4.91-16.5-.46-24.5-4.02-5.99-9.99-10.67-18.25-14.31-10.99-4.84-22.64-7.3-34.64-7.3-7.12,0-14.52,.86-22.01,2.57-11.92,2.71-21.17,7.37-28.31,14.24-7.27,7-9.71,14.36-7.48,22.49,2.42,8.81,8.58,15.14,18.31,18.8,4.44,1.67,9.25,2.49,14.73,2.49,3.19,0,6.71-.28,10.75-.85,4.63-.65,9.3-1.65,13.82-2.61,4.1-.87,8.29-1.77,12.49-2.42,2.58-.4,5.35-.77,8.18-.77Z"/>
        <path class="cls-2" d="M71.53,12.91c1.34,0,2.71,.02,4.06,.06,18.16,.58,33.32,4.15,46.35,10.92,6.98,3.63,12.25,7.82,16.12,12.81,7.89,10.16,7.3,22.48-1.53,32.15-6.68,7.31-15.72,12.6-28.46,16.65-11.02,3.5-22.59,5.21-35.36,5.21h-.36c-18.83-.12-34.7-3.49-48.52-10.31-7.23-3.57-12.71-7.74-16.76-12.74C2.75,62.3,.66,56.29,1.04,50.26c.38-6,3.18-11.75,8.11-16.63,7.46-7.39,17.13-12.59,30.44-16.37,10.18-2.89,20.92-4.36,31.93-4.36m-23.39,65.9c3.21,0,6.75-.28,10.82-.85,4.66-.66,9.34-1.66,13.87-2.62,4.06-.87,8.25-1.76,12.44-2.42,2.56-.4,5.31-.77,8.1-.77,1.84,0,3.53,.16,5.15,.48,3.34,.67,4.95,2.49,5.21,5.89,.07,.96-.22,1.76-.47,2.47-.01,.03-.02,.06-.03,.09,5.46-1.9,10.66-4.69,15.47-8.31,3.36-2.52,6.04-5.45,7.97-8.69,5.17-8.67,5.02-16.86-.47-25.03-4.08-6.07-10.12-10.81-18.46-14.49-11.05-4.87-22.77-7.34-34.84-7.34-7.15,0-14.6,.87-22.12,2.58-12.01,2.73-21.34,7.43-28.54,14.37-7.41,7.14-9.9,14.66-7.62,22.98,2.47,8.97,8.73,15.41,18.61,19.14,4.5,1.69,9.37,2.52,14.91,2.52M71.53,11.91c-11.1,0-21.93,1.48-32.2,4.39-13.47,3.83-23.28,9.11-30.87,16.62C3.35,37.98,.44,43.95,.05,50.2c-.4,6.28,1.76,12.53,6.25,18.08,4.14,5.12,9.73,9.38,17.09,13.01,13.96,6.89,29.97,10.3,48.95,10.42h.37c12.87,0,24.54-1.72,35.66-5.25,12.91-4.1,22.1-9.48,28.89-16.93,9.18-10.06,9.79-22.87,1.58-33.44-3.96-5.11-9.35-9.39-16.45-13.08-13.16-6.84-28.46-10.45-46.78-11.03-1.36-.04-2.74-.07-4.09-.07h0Zm-23.39,65.9c-5.41,0-10.17-.8-14.55-2.45-9.57-3.61-15.63-9.82-18-18.47-2.18-7.94,.22-15.13,7.35-22,7.07-6.81,16.25-11.42,28.07-14.11,7.45-1.69,14.81-2.55,21.9-2.55,11.93,0,23.52,2.44,34.44,7.26,8.17,3.6,14.06,8.22,18.03,14.13,5.25,7.82,5.4,15.66,.44,23.96-1.86,3.13-4.46,5.95-7.71,8.4-4.19,3.15-8.69,5.67-13.4,7.5,.04-.32,.05-.67,.03-1.03-.3-3.87-2.2-6.03-6.01-6.79-1.69-.34-3.44-.5-5.35-.5-2.86,0-5.66,.38-8.26,.78-4.22,.66-8.42,1.56-12.49,2.43-4.52,.96-9.18,1.96-13.8,2.61-4.02,.57-7.51,.84-10.68,.84h0Z"/>
      </g>
      <path class="cls-5" d="M72.35,89.53c-16.79-.1-32.97-2.77-48.01-10.19-6.31-3.12-12-7.03-16.36-12.43C-.47,56.46,.37,43.98,9.97,34.48c8.29-8.21,18.68-12.88,29.94-16.08,11.61-3.3,23.54-4.63,35.64-4.25,16.07,.51,31.58,3.37,45.85,10.79,6.11,3.18,11.58,7.13,15.74,12.49,7.56,9.74,6.97,21.38-1.47,30.63-7.5,8.21-17.31,12.94-27.95,16.33-11.46,3.64-23.29,5.18-35.37,5.15Zm29.4-6.72c6.6-2.03,12.44-5.17,17.65-9.09,3.25-2.44,6.14-5.45,8.27-9.02,5.31-8.91,5.31-17.65-.51-26.3-4.62-6.88-11.3-11.53-18.96-14.9-18.58-8.19-37.91-9.33-57.68-4.83-10.99,2.5-21.03,6.89-29.09,14.66-7.02,6.76-10.52,14.73-7.94,24.15,2.67,9.72,9.51,16.23,19.33,19.93,8.56,3.22,17.39,2.98,26.29,1.73,8.87-1.25,17.49-3.66,26.33-5.04,4.26-.67,8.56-1.16,12.85-.29,2.94,.59,4.06,2.08,4.27,4.82,.11,1.45-.98,2.61-.82,4.2Zm-9.06-5.8c-2.14-.87-4.13-.7-6.09-.55-4.39,.33-8.63,1.31-12.85,2.48-11.08,3.07-22.33,4.47-33.7,2.97,2.35,1.41,5.17,1.81,8.01,2.05,5.08,.43,10.12,.13,15.12-.78,9.81-1.78,19.39-4.56,29.51-6.16Z"/>
      <path class="cls-10" d="M51.15,54.45c-2.07,.3-4.06,1.67-6.01,4.07l-.51,.7,.84,.52,.54-.67c1.71-2.19,3.49-3.44,5.29-3.68l-.15-.94"/>
      <path class="cls-2" d="M73.16,18.35c-.86,0-1.72-.43-2.23-1.13-.49-.67-.64-1.52-.4-2.34,1.18-4.02,3.04-7.77,5.53-11.14,.5-.68,1.25-1.07,2.06-1.07,1.02,0,2,.62,2.46,1.53,.43,.86,.33,1.86-.26,2.66-2.15,2.91-3.77,6.17-4.8,9.67-.32,1.11-1.25,1.82-2.37,1.82h0Z"/>
      <path class="cls-2" d="M55.57,18.42c-1.21,0-2.17-.79-2.43-2-.37-1.73-1.46-3.37-2.51-4.96l-.13-.19c-1.14-1.73-2.39-3.38-3.79-5.21-.9-1.18-.86-2.68,.12-3.65,.48-.48,1.2-.77,1.92-.77,.77,0,1.46,.33,1.9,.9l.22,.29c1.38,1.81,2.81,3.67,4.09,5.62,1.22,1.85,2.74,4.15,3.29,6.7,.17,.81,0,1.61-.51,2.23-.52,.65-1.33,1.04-2.17,1.04h0Z"/>
      <path class="cls-2" d="M44,25.64c-1.14,0-2.08-.69-2.44-1.78-.11-.12-.35-.33-.49-.44-.14-.11-.27-.22-.38-.33-.36-.35-.74-.69-1.11-1.02-.8-.7-1.62-1.36-2.43-1.95-1.7-1.23-3.55-2.32-5.5-3.26-1.09-.52-1.62-1.6-1.37-2.76,.28-1.28,1.4-2.2,2.66-2.2,.4,0,.78,.09,1.16,.27,2.38,1.14,4.62,2.51,6.68,4.07,1.15,.88,2.17,1.73,3.11,2.6,.12,.11,.25,.23,.38,.34,.86,.78,1.94,1.74,2.32,3.13,.23,.81,.08,1.62-.4,2.26-.51,.67-1.33,1.08-2.19,1.08h0Z"/>
      <path class="cls-2" d="M38.18,34.72c-.52,0-1-.16-1.4-.47-3.83-2.99-8.68-3.98-13.36-4.6-1.47-.2-2.46-1.26-2.46-2.65,0-1.26,1.03-2.67,2.51-2.67,.1,0,.19,0,.29,.02,5.2,.69,11.15,1.74,15.95,5.49,1.17,.91,1.5,2.38,.8,3.56-.47,.79-1.4,1.32-2.33,1.32h0Z"/>
      <path class="cls-2" d="M82.23,25.26c.52,0,1-.16,1.4-.47,3.83-2.99,8.68-3.98,13.36-4.6,1.47-.2,2.46-1.26,2.46-2.65,0-1.26-1.03-2.67-2.51-2.67-.1,0-.19,0-.29,.02-5.2,.69-11.15,1.74-15.95,5.49-1.17,.91-1.5,2.38-.8,3.56,.47,.79,1.4,1.32,2.33,1.32h0Z"/>
      <path class="cls-2" d="M86.79,31.43c.51,.12,1.01,.06,1.47-.15,4.39-2.06,9.34-1.94,14.03-1.5,1.48,.14,2.68-.68,2.98-2.03,.28-1.23-.42-2.83-1.86-3.16-.09-.02-.19-.04-.28-.05-5.22-.49-11.26-.79-16.76,1.79-1.34,.63-1.98,1.98-1.56,3.29,.28,.88,1.08,1.6,1.98,1.81h0Z"/>
      <path class="cls-2" d="M64.42,17.05c-1.48,0-2.63-1.47-2.68-3.41-.01-.55-.03-1.09-.04-1.64-.05-2.12-.1-4.31-.21-6.45,0-.18-.02-.36-.03-.54v-.19c-.34-.97-.31-2.03,.08-2.96,.47-1.13,1.42-1.86,2.41-1.86,.89,0,1.68,.58,2.18,1.6,.5,1.01,.55,2.21,.58,3.07,0,.12,0,.23,.02,.34,.12,2.22,.17,4.48,.22,6.65,.01,.62,.03,1.23,.04,1.84,.02,.96-.22,1.84-.68,2.49-.48,.66-1.17,1.05-1.9,1.05h0Z"/>
      <g>
        <ellipse class="cls-3" cx="64.05" cy="36.38" rx="18.64" ry="21.43" transform="translate(18.68 94.42) rotate(-81.58)"/>
        <path class="cls-7" d="M74.29,16.16c1.07-3.65,2.74-7.03,5-10.08,1.04-1.4-1.16-2.96-2.2-1.56-2.39,3.23-4.2,6.87-5.33,10.73-.49,1.67,2.04,2.6,2.53,.92h0Z"/>
        <path class="cls-7" d="M56.99,15.42c-.48-2.27-1.84-4.34-3.1-6.25-1.33-2.01-2.8-3.92-4.26-5.83-.45-.58-1.43-.47-1.9,0-.57,.57-.44,1.34,0,1.92,1.32,1.73,2.64,3.47,3.84,5.28,1.14,1.72,2.39,3.56,2.83,5.6,.36,1.71,2.95,.98,2.59-.72h0Z"/>
        <path class="cls-7" d="M45.36,22.66c-.33-1.19-1.46-2.05-2.33-2.86-.96-.89-1.97-1.73-3.02-2.52-2.01-1.53-4.17-2.84-6.45-3.93-1.55-.74-2.92,1.6-1.36,2.34,2,.95,3.91,2.08,5.7,3.38,.87,.63,1.72,1.31,2.53,2.02,.39,.34,.78,.7,1.15,1.06,.31,.29,1.07,.82,1.18,1.23,.47,1.68,3.06,.97,2.59-.72h0Z"/>
        <path class="cls-7" d="M38.92,30.87c-4.39-3.43-9.96-4.51-15.33-5.23-.72-.1-1.34,.69-1.34,1.36,0,.81,.62,1.26,1.34,1.36,4.93,.65,9.96,1.72,13.98,4.86,.58,.45,1.5,.08,1.84-.49,.41-.7,.09-1.41-.48-1.86h0Z"/>
        <path class="cls-7" d="M81.49,21.42c4.39-3.43,9.96-4.51,15.33-5.23,.72-.1,1.34,.69,1.34,1.36,0,.81-.62,1.26-1.34,1.36-4.93,.65-9.96,1.72-13.98,4.86-.58,.45-1.5,.08-1.84-.49-.41-.7-.09-1.41,.48-1.86h0Z"/>
        <path class="cls-7" d="M86.91,27.51c5.03-2.36,10.7-2.18,16.1-1.67,.72,.07,1.16,.98,1.01,1.62-.18,.79-.88,1.09-1.61,1.02-4.95-.46-10.09-.55-14.69,1.61-.66,.31-1.48-.25-1.69-.89-.25-.77,.22-1.4,.88-1.7h0Z"/>
        <path class="cls-7" d="M65.72,13.58c-.07-2.81-.11-5.63-.26-8.43-.04-.83-.03-1.86-.39-2.59-.95-1.93-3.28-.12-2.32,1.82,.14,.29-.15-.47-.07-.24,.04,.1,.03,.22,.05,.32,.06,.26-.04-.52-.02-.19,0,.09,.02,.18,.02,.28,.02,.3,.04,.59,.05,.89,.13,2.71,.18,5.43,.25,8.14,.06,2.32,2.75,2.33,2.69,0h0Z"/>
        <g>
          <path class="cls-1" d="M56.61,25.48c.03-1.54,1.21-2.96,2.67-3.21,1.4-.25,2.57,.74,2.59,2.17,.02,1.45-.9,2.79-2.24,3.26-1.61,.57-3.05-.49-3.01-2.22Z"/>
          <path class="cls-1" d="M71.1,27.66c.74,.36,1.47,.7,2.17,1.08,.44,.24,.64,.58,.58,.97-.1,.63-.72,.95-1.3,.66-.62-.31-1.24-.63-1.89-.89-.94-.38-1.89-.71-2.87-.96-.5-.13-.77-.44-.78-.87-.01-.43,.25-.75,.73-.92,1.74-.6,3.52-.96,5.34-1.19,.14-.02,.28-.03,.43-.03,.51-.01,.89,.3,.93,.78,.04,.51-.28,.92-.8,.98-.74,.09-1.47,.19-2.2,.33-.11,.02-.22,.05-.33,.07Z"/>
          <path class="cls-5" d="M70.47,35.52c.24-.17,.28-.62,.04-1.87-.31-1.69-1.08-2.32-1.86-.72-.62,1.27-1.2,1.87-1.57,2.04-.31,.21-1.76,.62-1.65,1.5,1.25-.17,3.78-.82,5.04-.95Z"/>
          <path class="cls-1" d="M55.2,34.95c.04,.29,.21,.5,.56,.67,2.72,1.34,5.55,2.01,8.9,2.1,1.98,.03,4.15-.41,6.13-1.23,.55-.23,1.17-.53,1.66-1.05,.44-.47,.6-1.16,.38-1.66,0,0,0,0,0-.01-.16,.08-.28,.15-.41,.21-.12,.06-.24,.12-.35,.18-1.57,.87-3.22,1.46-4.9,1.76-2.47,.44-5.03,.27-7.8-.54-1.1-.32-2.13-.72-3.07-1.2-.28-.14-.54-.12-.79,.06-.24,.17-.34,.41-.31,.71Z"/>
        </g>
        <g>
          <g>
            <g>
              <path class="cls-4" d="M123.38,52.09c-.32-2.05-.81-3.98-1.45-5.75-.66-1.81-1.49-3.47-2.48-4.92-1.04-1.52-2.27-2.78-3.66-3.74-1.47-1.03-2.82-1.52-4.12-1.52-.11,0-.23,0-.34,.01-1.36,.1-2.56,.72-3.5,1.81v-1.37c0-.66-.26-1.29-.72-1.73-.42-.4-.96-.62-1.52-.62-.06,0-.12,0-.18,0l-13.47,1.17c-.61,.05-1.13,.36-1.51,.81-.1-.01-.2-.03-.3-.03-.16,0-.32,.02-.47,.05l-5.4,1.22c-1.03,.23-1.77,1.19-1.77,2.3v20.94c-.17,0-.34,.02-.51,.07l-2.48,.65v-19.74c0-.73-.31-1.41-.85-1.86-.4-.33-.89-.5-1.38-.5-.18,0-.36,.02-.54,.07l-5.37,1.41c-1,.26-1.7,1.21-1.7,2.29v17.47l-4.28-16.11c-.27-1.03-1.17-1.72-2.16-1.72-.13,0-.26,.01-.39,.04l-5.71,1.05c-.62,.11-1.16,.49-1.5,1.05-.34,.55-.44,1.23-.28,1.87l1.47,5.9-3.6,14.81-1.04-4.03c.57-.75,1.02-1.63,1.36-2.65,.47-1.43,.71-3.08,.71-4.92,0-1.47-.16-2.86-.47-4.14-.33-1.35-.83-2.56-1.5-3.6-.7-1.09-1.59-1.99-2.65-2.67-1.07-.69-2.31-1.12-3.69-1.27l-8.09-.87c-.08,0-.15-.01-.23-.01-.55,0-1.09,.21-1.5,.61-.47,.45-.74,1.08-.74,1.75v14.31l-3.69-19.39c-.11-.6-.45-1.13-.92-1.48l-4.98-3.62c-.38-.28-.83-.42-1.28-.42s-.85,.13-1.22,.38c-.76,.52-1.15,1.47-.98,2.41l1.31,7.27-4.32,16.36c-.26,.97,.1,2,.89,2.57l2.07,1.5c.38,.28,.83,.42,1.28,.42,.26,0,.53-.05,.79-.15,.69-.27,1.21-.88,1.39-1.62l.09-.38,1.38,1.01,.73,4.01c.11,.61,.44,1.15,.93,1.5l5.34,3.88c.38,.28,.83,.42,1.28,.42,.29,0,.58-.06,.86-.18,.31,.24,.69,.41,1.1,.45l5.45,.59c.08,0,.15,.01,.23,.01,.55,0,1.09-.21,1.5-.61,0,0,.02-.02,.03-.03,.37,.56,.95,.93,1.62,1.01l6.16,.66c.08,0,.15,.01,.23,.01,.5,0,.98-.18,1.37-.49,0,0,.01,0,.02,0,.13,0,.26-.01,.39-.03l2.37-.43c.88-.16,1.59-.86,1.8-1.77l.68-2.99,2.01-.37,.51,2.02c.26,1.05,1.17,1.76,2.17,1.76,.13,0,.26-.01,.39-.04l6.12-1.12c.5-.09,.94-.36,1.28-.74,.07,0,.13,.02,.2,.02,.18,0,.36-.02,.54-.07l10.62-2.79c.39-.1,.73-.31,1-.58,.21,.07,.43,.11,.66,.11,.16,0,.32-.02,.47-.05l5.39-1.22c1.03-.23,1.77-1.19,1.77-2.3v-21.2s1.52-.13,1.52-.13v20.21c0,.66,.26,1.29,.72,1.73,.42,.4,.96,.62,1.52,.62,.06,0,.12,0,.18,0l5.46-.47c1.16-.1,2.06-1.12,2.06-2.35v-20.6l1.87-.16c-.29,1.57-.43,3.4-.43,5.45,0,2.18,.16,4.32,.48,6.35,.32,2.07,.81,4.01,1.45,5.78,.66,1.81,1.49,3.47,2.48,4.92,1.04,1.52,2.27,2.78,3.66,3.74,1.47,1.03,2.82,1.53,4.12,1.53,.11,0,.23,0,.34-.01,1.53-.11,2.85-.88,3.84-2.22,.8-1.1,1.38-2.55,1.75-4.43,.33-1.66,.49-3.62,.49-5.83s-.16-4.28-.48-6.29Z"/>
              <path class="cls-9" d="M123.38,52.09c-.32-2.05-.81-3.98-1.45-5.75-.66-1.81-1.49-3.47-2.48-4.92-1.04-1.52-2.27-2.78-3.66-3.74-1.47-1.03-2.82-1.52-4.12-1.52-.11,0-.23,0-.34,.01-1.36,.1-2.56,.72-3.5,1.81v-1.37c0-.66-.26-1.29-.72-1.73-.42-.4-.96-.62-1.52-.62-.06,0-.12,0-.18,0l-13.47,1.17c-.61,.05-1.13,.36-1.51,.81-.1-.01-.2-.03-.3-.03-.16,0-.32,.02-.47,.05l-5.4,1.22c-1.03,.23-1.77,1.19-1.77,2.3v20.94c-.17,0-.34,.02-.51,.07l-2.48,.65v-19.74c0-.73-.31-1.41-.85-1.86-.4-.33-.89-.5-1.38-.5-.18,0-.36,.02-.54,.07l-5.37,1.41c-1,.26-1.7,1.21-1.7,2.29v17.47l-4.28-16.11c-.27-1.03-1.17-1.72-2.16-1.72-.13,0-.26,.01-.39,.04l-5.71,1.05c-.62,.11-1.16,.49-1.5,1.05-.34,.55-.44,1.23-.28,1.87l1.47,5.9-3.6,14.81-1.04-4.03c.57-.75,1.02-1.63,1.36-2.65,.47-1.43,.71-3.08,.71-4.92,0-1.47-.16-2.86-.47-4.14-.33-1.35-.83-2.56-1.5-3.6-.7-1.09-1.59-1.99-2.65-2.67-1.07-.69-2.31-1.12-3.69-1.27l-8.09-.87c-.08,0-.15-.01-.23-.01-.55,0-1.09,.21-1.5,.61-.47,.45-.74,1.08-.74,1.75v14.31l-3.69-19.39c-.11-.6-.45-1.13-.92-1.48l-4.98-3.62c-.38-.28-.83-.42-1.28-.42s-.85,.13-1.22,.38c-.76,.52-1.15,1.47-.98,2.41l1.31,7.27-4.32,16.36c-.26,.97,.1,2,.89,2.57l2.07,1.5c.38,.28,.83,.42,1.28,.42,.26,0,.53-.05,.79-.15,.69-.27,1.21-.88,1.39-1.62l.09-.38,1.38,1.01,.73,4.01c.11,.61,.44,1.15,.93,1.5l5.34,3.88c.38,.28,.83,.42,1.28,.42,.29,0,.58-.06,.86-.18,.31,.24,.69,.41,1.1,.45l5.45,.59c.08,0,.15,.01,.23,.01,.55,0,1.09-.21,1.5-.61,0,0,.02-.02,.03-.03,.37,.56,.95,.93,1.62,1.01l6.16,.66c.08,0,.15,.01,.23,.01,.5,0,.98-.18,1.37-.49,0,0,.01,0,.02,0,.13,0,.26-.01,.39-.03l2.37-.43c.88-.16,1.59-.86,1.8-1.77l.68-2.99,2.01-.37,.51,2.02c.26,1.05,1.17,1.76,2.17,1.76,.13,0,.26-.01,.39-.04l6.12-1.12c.5-.09,.94-.36,1.28-.74,.07,0,.13,.02,.2,.02,.18,0,.36-.02,.54-.07l10.62-2.79c.39-.1,.73-.31,1-.58,.21,.07,.43,.11,.66,.11,.16,0,.32-.02,.47-.05l5.39-1.22c1.03-.23,1.77-1.19,1.77-2.3v-21.2s1.52-.13,1.52-.13v20.21c0,.66,.26,1.29,.72,1.73,.42,.4,.96,.62,1.52,.62,.06,0,.12,0,.18,0l5.46-.47c1.16-.1,2.06-1.12,2.06-2.35v-20.6l1.87-.16c-.29,1.57-.43,3.4-.43,5.45,0,2.18,.16,4.32,.48,6.35,.32,2.07,.81,4.01,1.45,5.78,.66,1.81,1.49,3.47,2.48,4.92,1.04,1.52,2.27,2.78,3.66,3.74,1.47,1.03,2.82,1.53,4.12,1.53,.11,0,.23,0,.34-.01,1.53-.11,2.85-.88,3.84-2.22,.8-1.1,1.38-2.55,1.75-4.43,.33-1.66,.49-3.62,.49-5.83s-.16-4.28-.48-6.29Z"/>
            </g>
            <g>
              <path class="cls-2" d="M122.76,51.44c-.32-2.05-.81-3.98-1.45-5.75-.66-1.81-1.49-3.47-2.48-4.92-1.04-1.52-2.27-2.78-3.66-3.74-1.47-1.03-2.82-1.52-4.12-1.52-.11,0-.23,0-.34,.01-1.36,.1-2.56,.72-3.5,1.81v-1.37c0-.66-.26-1.29-.72-1.73-.42-.4-.96-.62-1.52-.62-.06,0-.12,0-.18,0l-13.47,1.17c-.61,.05-1.13,.36-1.51,.81-.1-.01-.2-.03-.3-.03-.16,0-.32,.02-.47,.05l-5.4,1.22c-1.03,.23-1.77,1.19-1.77,2.3v20.94c-.17,0-.34,.02-.51,.07l-2.48,.65v-19.74c0-.73-.31-1.41-.85-1.86-.4-.33-.89-.5-1.38-.5-.18,0-.36,.02-.54,.07l-5.37,1.41c-1,.26-1.7,1.21-1.7,2.29v17.47l-4.28-16.11c-.27-1.03-1.17-1.72-2.16-1.72-.13,0-.26,.01-.39,.04l-5.71,1.05c-.62,.11-1.16,.49-1.5,1.05-.34,.55-.44,1.23-.28,1.87l1.47,5.9-3.6,14.81-1.04-4.03c.57-.75,1.02-1.63,1.36-2.65,.47-1.43,.71-3.08,.71-4.92,0-1.47-.16-2.86-.47-4.14-.33-1.35-.83-2.56-1.5-3.6-.7-1.09-1.59-1.99-2.65-2.67-1.07-.69-2.31-1.12-3.69-1.27l-8.09-.87c-.08,0-.15-.01-.23-.01-.55,0-1.09,.21-1.5,.61-.47,.45-.74,1.08-.74,1.75v14.31l-3.69-19.39c-.11-.6-.45-1.13-.92-1.48l-4.98-3.62c-.38-.28-.83-.42-1.28-.42s-.85,.13-1.22,.38c-.76,.52-1.15,1.47-.98,2.41l1.31,7.27-4.32,16.36c-.26,.97,.1,2,.89,2.57l2.07,1.5c.38,.28,.83,.42,1.28,.42,.26,0,.53-.05,.79-.15,.69-.27,1.21-.88,1.39-1.62l.09-.38,1.38,1.01,.73,4.01c.11,.61,.44,1.15,.93,1.5l5.34,3.88c.38,.28,.83,.42,1.28,.42,.29,0,.58-.06,.86-.18,.31,.24,.69,.41,1.1,.45l5.45,.59c.08,0,.15,.01,.23,.01,.55,0,1.09-.21,1.5-.61,0,0,.02-.02,.03-.03,.37,.56,.95,.93,1.62,1.01l6.16,.66c.08,0,.15,.01,.23,.01,.5,0,.98-.18,1.37-.49,0,0,.01,0,.02,0,.13,0,.26-.01,.39-.03l2.37-.43c.88-.16,1.59-.86,1.8-1.77l.68-2.99,2.01-.37,.51,2.02c.26,1.05,1.17,1.76,2.17,1.76,.13,0,.26-.01,.39-.04l6.12-1.12c.5-.09,.94-.36,1.28-.74,.07,0,.13,.02,.2,.02,.18,0,.36-.02,.54-.07l10.62-2.79c.39-.1,.73-.31,1-.58,.21,.07,.43,.11,.66,.11,.16,0,.32-.02,.47-.05l5.39-1.22c1.03-.23,1.77-1.19,1.77-2.3v-21.2s1.52-.13,1.52-.13v20.21c0,.66,.26,1.29,.72,1.73,.42,.4,.96,.62,1.52,.62,.06,0,.12,0,.18,0l5.46-.47c1.16-.1,2.06-1.12,2.06-2.35v-20.6l1.87-.16c-.29,1.57-.43,3.4-.43,5.45,0,2.18,.16,4.32,.48,6.35,.32,2.07,.81,4.01,1.45,5.78,.66,1.81,1.49,3.47,2.48,4.92,1.04,1.52,2.27,2.78,3.66,3.74,1.47,1.03,2.82,1.53,4.12,1.53,.11,0,.23,0,.34-.01,1.53-.11,2.85-.88,3.84-2.22,.8-1.1,1.38-2.55,1.75-4.43,.33-1.66,.49-3.62,.49-5.83s-.16-4.28-.48-6.29Z"/>
              <path class="cls-8" d="M122.76,51.44c-.32-2.05-.81-3.98-1.45-5.75-.66-1.81-1.49-3.47-2.48-4.92-1.04-1.52-2.27-2.78-3.66-3.74-1.47-1.03-2.82-1.52-4.12-1.52-.11,0-.23,0-.34,.01-1.36,.1-2.56,.72-3.5,1.81v-1.37c0-.66-.26-1.29-.72-1.73-.42-.4-.96-.62-1.52-.62-.06,0-.12,0-.18,0l-13.47,1.17c-.61,.05-1.13,.36-1.51,.81-.1-.01-.2-.03-.3-.03-.16,0-.32,.02-.47,.05l-5.4,1.22c-1.03,.23-1.77,1.19-1.77,2.3v20.94c-.17,0-.34,.02-.51,.07l-2.48,.65v-19.74c0-.73-.31-1.41-.85-1.86-.4-.33-.89-.5-1.38-.5-.18,0-.36,.02-.54,.07l-5.37,1.41c-1,.26-1.7,1.21-1.7,2.29v17.47l-4.28-16.11c-.27-1.03-1.17-1.72-2.16-1.72-.13,0-.26,.01-.39,.04l-5.71,1.05c-.62,.11-1.16,.49-1.5,1.05-.34,.55-.44,1.23-.28,1.87l1.47,5.9-3.6,14.81-1.04-4.03c.57-.75,1.02-1.63,1.36-2.65,.47-1.43,.71-3.08,.71-4.92,0-1.47-.16-2.86-.47-4.14-.33-1.35-.83-2.56-1.5-3.6-.7-1.09-1.59-1.99-2.65-2.67-1.07-.69-2.31-1.12-3.69-1.27l-8.09-.87c-.08,0-.15-.01-.23-.01-.55,0-1.09,.21-1.5,.61-.47,.45-.74,1.08-.74,1.75v14.31l-3.69-19.39c-.11-.6-.45-1.13-.92-1.48l-4.98-3.62c-.38-.28-.83-.42-1.28-.42s-.85,.13-1.22,.38c-.76,.52-1.15,1.47-.98,2.41l1.31,7.27-4.32,16.36c-.26,.97,.1,2,.89,2.57l2.07,1.5c.38,.28,.83,.42,1.28,.42,.26,0,.53-.05,.79-.15,.69-.27,1.21-.88,1.39-1.62l.09-.38,1.38,1.01,.73,4.01c.11,.61,.44,1.15,.93,1.5l5.34,3.88c.38,.28,.83,.42,1.28,.42,.29,0,.58-.06,.86-.18,.31,.24,.69,.41,1.1,.45l5.45,.59c.08,0,.15,.01,.23,.01,.55,0,1.09-.21,1.5-.61,0,0,.02-.02,.03-.03,.37,.56,.95,.93,1.62,1.01l6.16,.66c.08,0,.15,.01,.23,.01,.5,0,.98-.18,1.37-.49,0,0,.01,0,.02,0,.13,0,.26-.01,.39-.03l2.37-.43c.88-.16,1.59-.86,1.8-1.77l.68-2.99,2.01-.37,.51,2.02c.26,1.05,1.17,1.76,2.17,1.76,.13,0,.26-.01,.39-.04l6.12-1.12c.5-.09,.94-.36,1.28-.74,.07,0,.13,.02,.2,.02,.18,0,.36-.02,.54-.07l10.62-2.79c.39-.1,.73-.31,1-.58,.21,.07,.43,.11,.66,.11,.16,0,.32-.02,.47-.05l5.39-1.22c1.03-.23,1.77-1.19,1.77-2.3v-21.2s1.52-.13,1.52-.13v20.21c0,.66,.26,1.29,.72,1.73,.42,.4,.96,.62,1.52,.62,.06,0,.12,0,.18,0l5.46-.47c1.16-.1,2.06-1.12,2.06-2.35v-20.6l1.87-.16c-.29,1.57-.43,3.4-.43,5.45,0,2.18,.16,4.32,.48,6.35,.32,2.07,.81,4.01,1.45,5.78,.66,1.81,1.49,3.47,2.48,4.92,1.04,1.52,2.27,2.78,3.66,3.74,1.47,1.03,2.82,1.53,4.12,1.53,.11,0,.23,0,.34-.01,1.53-.11,2.85-.88,3.84-2.22,.8-1.1,1.38-2.55,1.75-4.43,.33-1.66,.49-3.62,.49-5.83s-.16-4.28-.48-6.29Z"/>
            </g>
          </g>
          <g>
            <path class="cls-1" d="M25.29,44.59l-1.41-7.81,4.98,3.62,5.95,31.24-5.34-3.88-.9-4.96-4.79-3.48-.89,3.66-2.07-1.5,4.46-16.89Zm2.43,13.44l-1.54-8.5-1.53,6.27,3.07,2.23Z"/>
            <path class="cls-1" d="M37,45.02l8.09,.87c1.04,.11,1.96,.42,2.74,.93,.78,.51,1.44,1.17,1.96,1.99,.53,.82,.92,1.77,1.18,2.86,.26,1.09,.4,2.28,.4,3.55,0,1.58-.2,2.96-.59,4.15-.39,1.18-.97,2.09-1.74,2.74l2.94,11.45-6.16-.66-2.23-10.02-1.15-.12v9.76l-5.45-.59v-26.9Zm5.78,14.49c.45,.05,.85-.03,1.2-.23,.35-.2,.65-.51,.9-.93,.25-.41,.43-.92,.57-1.51,.13-.6,.2-1.25,.2-1.98s-.07-1.4-.2-2.02c-.13-.62-.32-1.17-.57-1.64-.25-.47-.54-.84-.9-1.12-.35-.28-.75-.44-1.2-.49l-.32-.03v9.92s.32,.04,.32,.04Z"/>
            <path class="cls-1" d="M58.5,51.99l-1.61-6.49,5.71-1.05,6.82,25.67-6.12,1.12-1.03-4.12-5.49,1.01-1.02,4.5-2.37,.43,5.12-21.07Zm2.78,11.17l-1.76-7.06-1.75,7.71,3.51-.64Z"/>
            <path class="cls-1" d="M71.28,42.46l5.37-1.41v22.76s5.25-1.38,5.25-1.38v4.14l-10.62,2.79v-26.9Z"/>
            <path class="cls-1" d="M84.1,39.13l5.4-1.22v26.9s-5.4,1.22-5.4,1.22v-26.9Z"/>
            <path class="cls-1" d="M95.5,40.92l-4.01,.35v-4.15l13.47-1.17v4.15l-4.01,.35v22.77l-5.46,.47v-22.77Z"/>
            <path class="cls-1" d="M106.88,47.91c0-2.04,.15-3.8,.45-5.29,.3-1.49,.74-2.64,1.33-3.45,.59-.81,1.32-1.24,2.21-1.31,.88-.06,1.91,.31,3.07,1.13,1.17,.81,2.19,1.86,3.07,3.15,.88,1.29,1.62,2.75,2.21,4.38,.59,1.63,1.03,3.39,1.33,5.3,.3,1.9,.45,3.87,.45,5.91s-.15,3.85-.45,5.36c-.3,1.51-.74,2.66-1.33,3.47-.59,.81-1.32,1.24-2.21,1.31-.88,.06-1.91-.31-3.07-1.13-1.17-.81-2.19-1.86-3.07-3.15-.88-1.29-1.62-2.75-2.21-4.38-.59-1.63-1.03-3.4-1.33-5.33-.3-1.92-.45-3.91-.45-5.98Zm7.06,15.09c.33,.23,.62,.31,.88,.23,.25-.08,.47-.42,.64-1.04,.17-.62,.3-1.56,.39-2.82,.09-1.27,.13-2.97,.13-5.12s-.04-3.87-.13-5.25c-.09-1.38-.22-2.49-.39-3.33-.17-.84-.38-1.48-.64-1.91-.25-.43-.54-.76-.88-.99-.33-.23-.62-.31-.88-.23-.26,.08-.47,.42-.64,1.02-.17,.6-.3,1.53-.39,2.79-.09,1.25-.13,2.94-.13,5.07s.04,3.92,.13,5.31c.09,1.39,.22,2.51,.39,3.37,.17,.86,.38,1.5,.64,1.93,.26,.43,.55,.76,.88,.99Z"/>
          </g>
        </g>
      </g>
    </g>
  </g>
</svg>