<svg xmlns="http://www.w3.org/2000/svg" viewBox="0 0 76.77 47.81"><defs><style>.cls-1{fill:#fff}.cls-3{fill:#194389}.cls-5{fill:#1d1d1b}</style></defs><g style="isolation:isolate"><g id="Capa_2" data-name="Capa 2"><g id="Capa_1-2" data-name="Capa 1"><g style="mix-blend-mode:multiply;opacity:.5"><ellipse cx="38.43" cy="24.53" class="cls-5" rx="35" ry="21.56"/><path d="M38.96 46.89c-8.84-.06-17.37-1.65-25.29-6.06-3.32-1.85-6.32-4.18-8.62-7.39C.6 27.24 1.04 19.82 6.1 14.17c4.37-4.88 9.84-7.66 15.77-9.56 6.12-1.96 12.4-2.75 18.77-2.53 8.47.3 16.64 2 24.15 6.41 3.22 1.89 6.1 4.24 8.29 7.42 3.98 5.79 3.67 12.71-.78 18.2-3.95 4.88-9.12 7.69-14.73 9.7-6.04 2.16-12.27 3.08-18.63 3.06Zm15.49-3.99c3.48-1.21 6.55-3.07 9.3-5.4 1.71-1.45 3.24-3.24 4.36-5.36 2.8-5.29 2.8-10.49-.27-15.63-2.43-4.09-5.95-6.85-9.99-8.86-9.79-4.87-19.97-5.54-30.39-2.87-5.79 1.49-11.08 4.1-15.32 8.72-3.7 4.02-5.54 8.76-4.18 14.36 1.41 5.78 5.01 9.64 10.18 11.84 4.51 1.92 9.16 1.77 13.85 1.03 4.67-.74 9.21-2.18 13.87-3 2.25-.4 4.51-.69 6.77-.17 1.55.35 2.14 1.24 2.25 2.87.06.86-.51 1.55-.43 2.49Zm-4.77-3.45c-1.13-.52-2.17-.42-3.21-.33-2.31.2-4.55.78-6.77 1.47-5.84 1.82-11.76 2.66-17.75 1.76 1.24.84 2.72 1.08 4.22 1.22 2.67.26 5.33.08 7.96-.46 5.17-1.06 10.21-2.71 15.55-3.66Z" class="cls-3"/><path d="M38.53 2.05c.71 0 1.41.01 2.12.04 8.47.3 16.64 2 24.15 6.41 3.22 1.89 6.1 4.24 8.29 7.42 3.98 5.79 3.67 12.71-.78 18.2-3.95 4.88-9.12 7.69-14.73 9.7-5.98 2.14-12.14 3.06-18.44 3.06h-.19c-8.84-.06-17.37-1.65-25.29-6.06-3.32-1.85-6.32-4.18-8.62-7.39-4.44-6.19-4-13.61 1.06-19.26 4.37-4.88 9.84-7.66 15.77-9.56 5.44-1.74 11.01-2.56 16.65-2.56M26.2 41.22c1.92 0 3.85-.21 5.78-.51 4.67-.74 9.21-2.18 13.87-3 1.39-.24 2.78-.45 4.18-.45.86 0 1.73.08 2.6.27 1.55.35 2.14 1.24 2.25 2.87.06.86-.51 1.55-.43 2.49 3.48-1.21 6.55-3.07 9.3-5.4 1.71-1.45 3.24-3.24 4.36-5.36 2.8-5.29 2.8-10.49-.27-15.63-2.43-4.09-5.95-6.85-9.99-8.86-6.06-3.01-12.27-4.42-18.6-4.42-3.89 0-7.82.53-11.79 1.55-5.79 1.49-11.08 4.1-15.32 8.72-3.7 4.02-5.54 8.76-4.18 14.36 1.41 5.78 5.01 9.64 10.18 11.84 2.65 1.13 5.34 1.54 8.07 1.54m.66 1.5c-1.63 0-3.27-.11-4.92-.36 1.24.84 2.72 1.08 4.22 1.22.81.08 1.61.11 2.41.11 1.86 0 3.71-.2 5.55-.58 5.17-1.06 10.21-2.71 15.55-3.66-.69-.31-1.34-.4-1.98-.4-.41 0-.82.04-1.23.07-2.31.2-4.55.78-6.77 1.47-4.23 1.32-8.52 2.12-12.83 2.12M38.53 1.13c-5.83 0-11.53.88-16.92 2.6-7.06 2.26-12.2 5.38-16.16 9.81-2.63 2.94-4.12 6.39-4.33 10-.2 3.62.91 7.23 3.21 10.45C6.48 37 9.4 39.5 13.24 41.64c7.33 4.08 15.74 6.1 25.71 6.17h.2c6.76 0 12.89-1.02 18.73-3.11 6.76-2.43 11.57-5.6 15.12-9.98 2.31-2.85 3.61-6.15 3.75-9.54.15-3.4-.87-6.78-2.94-9.78-2.06-3-4.87-5.51-8.58-7.69-6.91-4.05-14.94-6.19-24.56-6.53-.72-.03-1.44-.04-2.15-.04ZM26.21 40.3c-2.87 0-5.4-.48-7.73-1.47-5.13-2.18-8.38-5.96-9.66-11.22-1.19-4.89.11-9.31 3.96-13.5 3.76-4.08 8.63-6.85 14.89-8.46 3.94-1.01 7.83-1.52 11.57-1.52 6.31 0 12.44 1.46 18.21 4.33 4.35 2.16 7.49 4.95 9.62 8.51 2.86 4.8 2.94 9.62.24 14.71-1 1.9-2.4 3.61-4.14 5.09-2.36 2-4.89 3.57-7.55 4.68.09-.33.16-.71.13-1.13-.14-2.1-1.08-3.28-2.95-3.7-.88-.2-1.79-.3-2.79-.3-1.5 0-2.96.22-4.33.46-2.22.39-4.43.92-6.57 1.44-2.38.57-4.84 1.17-7.28 1.55-2.13.34-3.97.5-5.65.5Z" class="cls-3"/><path d="M17.7 18.71c.06-.2.08-.53.04-.73l-.87-4.16c-.04-.2.07-.44.25-.53L21 11.53c.19-.08.37.03.41.23l4.58 25.42c.04.2-.1.35-.3.32l-4.36-.89c-.19-.05-.38-.26-.42-.46l-.58-3.51c-.03-.2-.22-.42-.41-.47l-3.78-1.21c-.19-.07-.4.04-.47.23l-.75 2.11c-.07.19-.27.27-.44.16l-1.3-.83c-.17-.11-.25-.36-.17-.55l4.69-13.37Zm1.56 9.57c.2.03.33-.11.3-.31l-1.02-5.78c-.04-.2-.11-.21-.17 0l-1.5 5.29c-.06.2.06.39.25.43l2.13.38ZM28.26 10.45c0-.21.17-.37.37-.37l5.63.46c.2.03.52.1.71.17 0 0 1.19.39 1.8.93.61.53 1.13 1.2 1.54 1.99.41.79.73 1.67.94 2.66.21.99.32 2.05.32 3.2 0 1.42-.15 2.66-.47 3.77-.31 1.11-1.2 2.41-1.2 2.41-.12.17-.17.47-.12.68l2.24 9.02c.05.2-.07.41-.26.46l-4.43 1.04c-.2.04-.39-.09-.43-.29l-1.6-8.69c-.04-.2-.21-.36-.38-.36s-.63.2-.63.4l-.13 9.08c0 .21-.17.39-.37.41l-3.8.2a.36.36 0 0 1-.36-.37l.61-26.8Zm4.28 13.8s.25-.03.45-.07c0 0 .33-.06.61-.3.29-.24.53-.58.74-1.01.2-.43.36-.95.47-1.54.11-.59.17-1.24.18-1.95 0-.71-.04-1.36-.14-1.97-.1-.61-.24-1.14-.44-1.59-.19-.45-.42-.82-.7-1.09-.28-.27-.59-.36-.59-.36-.19-.05-.39-.1-.44-.11s-.17.16-.18.36l-.14 9.24c0 .21.12.38.17.38ZM45.15 18.9c.05-.2.05-.53 0-.73l-1.19-4.92c-.05-.2.07-.32.27-.27l3.81.93c.2.05.41.24.47.44l6 17.95c.07.19-.04.37-.24.4l-4.37.62c-.2.03-.41-.1-.48-.3l-.72-2.25a.442.442 0 0 0-.47-.3l-3.84.64a.6.6 0 0 0-.44.43l-.65 2.98c-.04.2-.24.41-.43.46l-1.28.35c-.19.05-.32-.07-.27-.27l3.83-16.16Zm2.18 8.59c.2-.02.32-.2.26-.4l-1.36-4.81c-.06-.2-.14-.2-.18 0l-1.16 5.07c-.05.2.08.35.28.33l2.16-.21ZM55.33 15.3c-.01-.21.15-.37.35-.37l3.59-.03c.2 0 .38.16.39.36l.83 14.26c.01.21.19.39.39.4l3.59.32c.2.02.37.21.39.42l.13 2.13c.01.21-.14.36-.34.33l-8.06-.56c-.2 0-.37-.18-.38-.39l-.86-16.87Z" class="cls-5"/></g><ellipse cx="38.43" cy="23.4" class="cls-1" rx="35" ry="21.56"/><path d="M37.86 45.76c-8.84-.06-17.37-1.65-25.29-6.06-3.32-1.85-6.32-4.18-8.62-7.39C-.5 26.11-.06 18.69 5 13.04c4.37-4.88 9.84-7.66 15.77-9.56C26.89 1.52 33.17.73 39.54.95c8.47.3 16.64 2 24.15 6.41 3.22 1.89 6.1 4.24 8.29 7.42 3.98 5.79 3.67 12.71-.78 18.2-3.95 4.88-9.12 7.69-14.73 9.7-6.04 2.16-12.27 3.08-18.63 3.06Zm15.49-3.99c3.48-1.21 6.55-3.07 9.3-5.4 1.71-1.45 3.24-3.24 4.36-5.36 2.8-5.29 2.8-10.49-.27-15.63-2.43-4.09-5.95-6.85-9.99-8.86C46.96 1.64 36.78.96 26.36 3.63c-5.79 1.49-11.08 4.1-15.32 8.72-3.7 4.02-5.54 8.76-4.18 14.36 1.41 5.78 5.01 9.64 10.18 11.84 4.51 1.92 9.16 1.77 13.85 1.03 4.67-.74 9.21-2.18 13.87-3 2.25-.4 4.51-.69 6.77-.17 1.55.35 2.14 1.24 2.25 2.87.06.86-.51 1.55-.43 2.49Zm-4.77-3.45c-1.13-.52-2.17-.42-3.21-.33-2.31.2-4.55.78-6.77 1.47-5.84 1.82-11.76 2.66-17.75 1.76 1.24.84 2.72 1.08 4.22 1.22 2.67.26 5.33.08 7.96-.46 5.17-1.06 10.21-2.71 15.55-3.66Z" class="cls-3"/><path d="M37.43.92c.71 0 1.41.01 2.12.04 8.47.3 16.64 2 24.15 6.41 3.22 1.89 6.1 4.24 8.29 7.42 3.98 5.79 3.67 12.71-.78 18.2-3.95 4.88-9.12 7.69-14.73 9.7-5.98 2.14-12.14 3.06-18.44 3.06h-.19c-8.84-.06-17.37-1.65-25.29-6.06-3.32-1.85-6.32-4.18-8.62-7.39C-.5 26.11-.06 18.69 5 13.04c4.37-4.88 9.84-7.66 15.77-9.56C26.21 1.74 31.78.92 37.43.92M25.11 40.09c1.92 0 3.85-.21 5.78-.51 4.67-.74 9.21-2.18 13.87-3 1.39-.24 2.78-.45 4.18-.45.86 0 1.73.08 2.6.27 1.55.35 2.14 1.24 2.25 2.87.06.86-.51 1.55-.43 2.49 3.48-1.21 6.55-3.07 9.3-5.4 1.71-1.45 3.24-3.24 4.36-5.36 2.8-5.29 2.8-10.49-.27-15.63-2.43-4.09-5.95-6.85-9.99-8.86-6.06-3.01-12.27-4.42-18.6-4.42-3.89 0-7.82.53-11.79 1.55-5.79 1.49-11.08 4.1-15.32 8.72-3.7 4.02-5.54 8.76-4.18 14.36 1.41 5.78 5.01 9.64 10.18 11.84 2.65 1.13 5.34 1.54 8.07 1.54m.66 1.5c-1.63 0-3.27-.11-4.92-.36 1.24.84 2.72 1.08 4.22 1.22.81.08 1.61.11 2.41.11 1.86 0 3.71-.2 5.55-.58 5.17-1.06 10.21-2.71 15.55-3.66-.69-.31-1.34-.4-1.98-.4-.41 0-.82.04-1.23.07-2.31.2-4.55.78-6.77 1.47-4.23 1.32-8.52 2.12-12.83 2.12M37.43 0C31.6 0 25.9.88 20.51 2.6c-7.06 2.27-12.2 5.38-16.16 9.81-2.63 2.94-4.12 6.4-4.33 10-.2 3.62.91 7.23 3.21 10.45 2.15 3.01 5.07 5.51 8.91 7.65 7.33 4.08 15.74 6.1 25.71 6.17h.2c6.76 0 12.89-1.02 18.73-3.11 6.76-2.43 11.57-5.6 15.12-9.98 2.31-2.85 3.61-6.15 3.75-9.54.15-3.4-.87-6.78-2.94-9.78-2.06-3-4.87-5.51-8.58-7.69C57.24 2.52 49.2.38 39.58.04 38.86.01 38.14 0 37.43 0ZM25.11 39.17c-2.87 0-5.4-.48-7.73-1.47-5.13-2.18-8.38-5.96-9.66-11.22-1.19-4.89.11-9.31 3.96-13.5 3.76-4.08 8.63-6.85 14.89-8.46C30.51 3.51 34.4 3 38.14 3c6.31 0 12.44 1.46 18.21 4.33 4.35 2.16 7.49 4.95 9.62 8.51 2.86 4.8 2.94 9.62.24 14.71-1 1.9-2.4 3.61-4.14 5.09-2.36 2-4.89 3.57-7.55 4.68.09-.33.16-.71.13-1.13-.14-2.1-1.08-3.28-2.95-3.7-.88-.2-1.79-.3-2.79-.3-1.5 0-2.96.22-4.33.46-2.22.39-4.43.92-6.57 1.44-2.38.57-4.84 1.17-7.28 1.55-2.13.34-3.97.5-5.65.5Z" class="cls-1"/><path d="M16.61 17.58c.06-.2.08-.53.04-.73l-.87-4.16c-.04-.2.07-.44.25-.53l3.88-1.76c.19-.08.37.03.41.23l4.58 25.42c.04.2-.1.35-.3.32l-4.36-.89c-.19-.05-.38-.26-.42-.46l-.58-3.51c-.03-.2-.22-.42-.41-.47l-3.78-1.21c-.19-.07-.4.04-.47.23l-.75 2.11c-.07.19-.27.27-.44.16l-1.3-.83c-.17-.11-.25-.36-.17-.55l4.69-13.37Zm1.56 9.57c.2.03.33-.11.3-.31l-1.02-5.78c-.04-.2-.11-.21-.17 0l-1.5 5.29c-.06.2.06.39.25.43l2.13.38ZM27.16 9.32c0-.21.17-.37.37-.37l5.63.46c.2.03.52.1.71.17 0 0 1.19.39 1.8.93.61.53 1.13 1.2 1.54 1.99.41.79.73 1.67.94 2.66.21.99.32 2.05.32 3.2 0 1.42-.15 2.66-.47 3.77-.31 1.11-1.2 2.41-1.2 2.41-.12.17-.17.47-.12.68l2.24 9.02c.05.2-.07.41-.26.46l-4.43 1.04c-.2.04-.39-.09-.43-.29l-1.6-8.69c-.04-.2-.21-.36-.38-.36s-.63.2-.63.4l-.13 9.08c0 .21-.17.39-.37.41l-3.8.2a.36.36 0 0 1-.36-.37l.61-26.8Zm4.28 13.8s.25-.03.45-.07c0 0 .33-.06.61-.3.29-.24.53-.58.74-1.01.2-.43.36-.95.47-1.54.11-.59.17-1.24.18-1.95 0-.71-.04-1.36-.14-1.97-.1-.61-.24-1.14-.44-1.59-.19-.45-.42-.82-.7-1.09-.28-.27-.59-.36-.59-.36-.19-.05-.39-.1-.44-.11s-.17.16-.18.36l-.14 9.24c0 .21.12.38.17.38ZM44.05 17.77c.05-.2.05-.53 0-.73l-1.19-4.92c-.05-.2.07-.32.27-.27l3.81.93c.2.05.41.24.47.44l6 17.95c.07.19-.04.37-.24.4l-4.37.62c-.2.03-.41-.1-.48-.3l-.72-2.25a.442.442 0 0 0-.47-.3l-3.84.64a.6.6 0 0 0-.44.43l-.65 2.98c-.04.2-.24.41-.43.46l-1.28.35c-.19.05-.32-.07-.27-.27l3.83-16.16Zm2.18 8.59c.2-.02.32-.2.26-.4l-1.36-4.81c-.06-.2-.14-.2-.18 0l-1.16 5.07c-.05.2.08.35.28.33l2.16-.21ZM54.23 14.17c-.01-.21.15-.37.35-.37l3.59-.03c.2 0 .38.16.39.36l.83 14.26c.01.21.19.39.39.4l3.59.32c.2.02.37.21.39.42l.13 2.13c.01.21-.14.36-.34.33l-8.06-.56c-.2 0-.37-.18-.38-.39l-.86-16.87Z" class="cls-3"/></g></g></g></svg>