<?xml version="1.0" encoding="UTF-8"?>
<svg id="Capa_2" data-name="Capa 2" xmlns="http://www.w3.org/2000/svg" xmlns:xlink="http://www.w3.org/1999/xlink" viewBox="0 0 148.01 124.22">
  <defs>
    <style>
      .cls-1 {
        fill: url(#linear-gradient-2);
      }

      .cls-2, .cls-3 {
        fill: #fff;
      }

      .cls-4 {
        fill: #f5d500;
      }

      .cls-3 {
        stroke: #fff;
        stroke-miterlimit: 10;
        stroke-width: 5.45px;
      }

      .cls-5 {
        fill: url(#linear-gradient-3);
      }

      .cls-6 {
        fill: url(#linear-gradient);
      }

      .cls-7 {
        fill: url(#linear-gradient-4);
      }

      .cls-8 {
        fill: #ec6511;
      }
    </style>
    <linearGradient id="linear-gradient" x1="13.83" y1="47.04" x2="125.82" y2="47.04" gradientUnits="userSpaceOnUse">
      <stop offset="0" stop-color="#537132"/>
      <stop offset="1" stop-color="#8fb52a"/>
    </linearGradient>
    <linearGradient id="linear-gradient-2" x1="109.62" y1="41.98" x2="135.25" y2="41.98" gradientUnits="userSpaceOnUse">
      <stop offset="0" stop-color="#537132"/>
      <stop offset=".23" stop-color="#577531"/>
      <stop offset=".48" stop-color="#63832f"/>
      <stop offset=".76" stop-color="#779a2d"/>
      <stop offset="1" stop-color="#8fb52a"/>
    </linearGradient>
    <linearGradient id="linear-gradient-3" x1="98.6" y1="38.76" x2="133.93" y2="38.76" xlink:href="#linear-gradient-2"/>
    <linearGradient id="linear-gradient-4" x1="15.16" y1="28.86" x2="85.04" y2="28.86" gradientUnits="userSpaceOnUse">
      <stop offset="0" stop-color="#537132"/>
      <stop offset="0" stop-color="#577230"/>
      <stop offset="0" stop-color="#65782b"/>
      <stop offset="0" stop-color="#7c8124"/>
      <stop offset="0" stop-color="#9c8e1a"/>
      <stop offset="0" stop-color="#c49f0c"/>
      <stop offset="0" stop-color="#ecaf00"/>
      <stop offset="1" stop-color="#f5d500"/>
    </linearGradient>
  </defs>
  <g id="Capa_1-2" data-name="Capa 1">
    <g>
      <path class="cls-3" d="M8.59,48.55v54.31c0,7.04,5.74,12.77,12.77,12.77H126.64c7.05,0,12.78-5.73,12.78-12.77V48.55l-.03-1.97c0-.26,.03-.52,.03-.79,0-20.51-29.34-37.2-65.41-37.2S8.59,25.28,8.59,45.79v2.76Z"/>
      <g>
        <g>
          <path class="cls-8" d="M33.63,72.11c-.12,1.02-.42,1.92-.9,2.74-.47,.82-1.09,1.5-1.85,2.08-.77,.57-1.65,1.01-2.66,1.3-1,.31-2.09,.46-3.28,.46-.62,0-1.26-.04-1.9-.12-.65-.08-1.29-.21-1.92-.34-.64-.14-1.42-.65-2-.86-.58-.2-2.01-1.24-2.5-1.47l2.5-3.46c1.14,.87,2.29,1.62,3.21,1.83,.9,.2,3.79,.81,4.79-.29,.45-.5,.87-.99,.97-1.77,.04-.41,.01-.79-.11-1.11-.12-.32-.3-.62-.55-.89-.25-.26-.57-.51-.94-.72-.38-.22-.81-.44-1.29-.65-.9-.33-1.71-.69-2.4-1.07-.7-.39-1.3-.8-1.78-1.27-.48-.47-.86-.98-1.11-1.56-.25-.58-.36-1.23-.36-1.96,0-.27,.01-.56,.05-.86,.12-1.02,.42-1.95,.88-2.78,.47-.81,1.07-1.52,1.81-2.08,.74-.57,1.61-1.01,2.58-1.33,1-.3,2.08-.45,3.28-.45,.63,0,1.27,.05,1.93,.15,.64,.11,1.28,.24,1.87,.4,.8,.22,1.35,.42,1.64,.54,.5,.2,1.69,.74,2.03,.93l-1.78,3.64c-1.04-.34-2.4-1.07-3.25-1.26-.86-.18-1.7-.28-2.54-.28-.88,0-1.56,.21-2.02,.62-.47,.43-.74,1-.84,1.73-.02,.09-.02,.17-.02,.26,0,.09-.02,.18-.02,.27,0,.59,.43,.96,.78,1.39,.35,.44,1.06,.73,1.97,1.09,1.09,.38,1.92,.77,2.7,1.16,.79,.4,1.41,1.01,1.91,1.49,.49,.46,1.29,1.96,1.18,3.48-.01,.16,0,.31-.01,.49,0,.16-.04,.32-.06,.51Z"/>
          <path class="cls-8" d="M45.18,77.12c-.65,.61-1.45,1.1-2.4,1.47-.96,.38-2.13,.56-3.54,.56s-2.51-.42-3.28-1.26c-.76-.85-1.15-2.1-1.15-3.75,0-.33,.02-.68,.06-1.04,.03-.36,.06-.74,.13-1.13,.24-1.42,.64-2.7,1.18-3.88,.54-1.17,1.2-2.17,1.96-3.01,.76-.84,1.62-1.5,2.58-1.96,.97-.46,1.98-.69,3.04-.69,.47,0,.86,.02,1.19,.05,.32,.03,.59,.09,.83,.17,.23,.07,.44,.19,.64,.32,.19,.12,.4,.29,.63,.48l.72-.69h4.7l-2.76,16.07h-4.2l-.34-1.72Zm-5.32-5.23c-.06,.3-.1,.58-.14,.84-.03,.26-.04,.49-.04,.7,0,.8,.21,1.35,.62,1.67,.42,.31,1.09,.47,2,.47,.56,0,1.13-.12,1.7-.37,.56-.24,1.03-.61,1.43-1.08l1.58-7.69c-.32-.12-.65-.23-1.02-.31-.36-.1-.78-.14-1.29-.14-.6,0-1.14,.14-1.66,.41-.51,.28-.97,.67-1.38,1.17-.41,.51-.77,1.13-1.08,1.86-.3,.73-.55,1.55-.73,2.46Z"/>
          <path class="cls-8" d="M56.94,55.05h4.37l-1.14,8.42c.65-.38,1.35-.67,2.1-.89,.76-.21,1.6-.31,2.55-.31,.81,0,1.54,.14,2.19,.43,.65,.29,1.2,.7,1.66,1.23,.44,.55,.8,1.19,1.05,1.96,.24,.76,.36,1.62,.36,2.57,0,.33-.02,.68-.05,1.03-.03,.35-.07,.71-.14,1.09-.21,1.3-.55,2.46-1.04,3.5-.47,1.04-1.07,1.92-1.76,2.64-.68,.73-1.47,1.28-2.33,1.67-.86,.39-1.8,.45-2.78,.58-3.65,.52-6.81-.67-6.81-.67l-2.63-1.15,2.24-9.06s1.28-6.8,1.54-8.02c.27-1.22,.61-5.04,.61-5.04Zm8.06,15.54c.07-.38,.12-.72,.16-1.06,.03-.33,.06-.64,.06-.93,0-.96-.2-1.66-.61-2.12-.41-.46-1.04-.7-1.93-.7-.47,0-.96,.09-1.47,.24-.51,.15-.98,.35-1.42,.6l-1.65,8.7c.17,.12,.99,.59,2.89,.49,1.13-.06,1.87-.76,2.53-1.6,.67-.84,1.15-2.04,1.45-3.62Z"/>
          <path class="cls-8" d="M71.22,70.44c.24-1.32,.65-2.5,1.23-3.55,.59-1.05,1.32-1.91,2.2-2.63,.88-.71,1.87-1.25,2.99-1.63,1.12-.36,2.32-.55,3.62-.55,1.13,0,2.16,.15,3.08,.45,.92,.31,1.72,.75,2.36,1.31,.67,.56,1.17,1.27,1.53,2.09,.36,.83,.53,1.76,.53,2.8,0,.28,0,.56-.04,.83-.02,.28-.06,.57-.11,.86-.23,1.34-.65,2.53-1.26,3.57-.61,1.04-1.35,1.91-2.26,2.62-.89,.71-1.92,1.24-3.05,1.61-1.14,.37-2.38,.56-3.68,.56-1.12,0-2.13-.15-3.02-.45-.89-.3-1.66-.73-2.3-1.3-.63-.56-1.11-1.25-1.45-2.06-.34-.82-.52-1.74-.52-2.77,0-.28,.02-.56,.03-.87,.02-.3,.06-.6,.12-.92Zm4.99,.4c-.07,.36-.14,.69-.17,1-.04,.3-.06,.6-.06,.87,0,.55,.07,1.01,.21,1.38,.13,.37,.32,.68,.57,.91,.25,.23,.55,.4,.89,.5,.34,.11,.74,.16,1.15,.16,.54,0,1.07-.09,1.56-.26,.49-.18,.95-.46,1.39-.84,.42-.39,.8-.89,1.13-1.5,.32-.61,.57-1.36,.75-2.23,.14-.68,.21-1.28,.21-1.79,0-.56-.07-1.04-.22-1.44-.16-.38-.36-.7-.64-.94-.27-.25-.59-.42-.96-.52-.37-.1-.78-.16-1.24-.16-.5,0-1,.09-1.48,.26-.47,.17-.9,.45-1.31,.83-.4,.37-.74,.87-1.05,1.49-.32,.61-.56,1.37-.74,2.27Z"/>
          <path class="cls-8" d="M91.75,62.72h4.4l.39,2.08c.77-.87,1.35-1.5,2.13-1.85,.77-.36,1.54-.53,2.32-.53,.2,0,.43,0,.66,.01,.23,.01,2.06,.18,2.28,.21l-1.55,3.75c-.27-.05-1.51-.09-1.79-.1-.27-.02-.58-.03-.95-.03-.56,0-1.14,.16-1.72,.49-.6,.33-1.77,1.12-2.61,3.02l-1.65,9.04h-4.61s2.15-9.64,2.46-11.5c.32-1.86,.25-4.57,.25-4.57Z"/>
          <path class="cls-8" d="M107.48,72.14c-.01,.12-.29,1.51,.5,2.71,.43,.66,2.06,1.25,3.14,1.22,3.33-.14,4.52-1.18,5.06-1.33l.76,2.78c-.73,.41-2.27,1.09-3.28,1.31-1,.22-2.08,.33-3.2,.33-1.24,0-2.34-.14-3.32-.43-.96-.28-1.79-.7-2.46-1.26-.67-.55-1.19-1.23-1.54-2.03-.36-.81-.54-1.72-.54-2.76,0-.27,0-.55,.03-.85,.02-.29,.06-.59,.13-.89,.23-1.39,.65-2.61,1.22-3.67,.56-1.06,1.27-1.94,2.12-2.66,.85-.72,1.82-1.26,2.92-1.62,1.1-.37,2.3-.55,3.6-.55,.84,0,1.62,.13,2.32,.37,.7,.25,1.3,.6,1.8,1.06,.5,.45,.88,1,1.17,1.64,.29,.65,.43,1.36,.43,2.17,0,.39-.04,.81-.11,1.24l-.49,2.68-10.27,.53Zm2.31-5.88c-.27,.26-.66,.68-.87,1.09-.22,.41-.54,.81-.78,1.97l5.77-.24c.42-1.54-.09-2.49-.37-2.85-1.01-1.3-3.5-.22-3.75,.03Z"/>
          <path class="cls-8" d="M131.2,73.99c-.09,.7-.35,1.35-.76,1.95-.43,.6-.98,1.13-1.66,1.57-.67,.46-1.48,.81-2.39,1.07-.91,.26-1.91,.38-2.99,.38-.54,0-1.1-.03-1.64-.09-.54-.07-1.07-.16-1.58-.26-.51-.12-1-.25-1.44-.41-.47-.15-.88-.33-1.23-.5l1.05-3.19c.84,.28,1.63,.52,2.37,.73,.75,.2,1.49,.3,2.24,.3,.31,0,.61-.03,.89-.12,.28-.08,.54-.2,.75-.35,.22-.15,.39-.31,.53-.52,.14-.21,.23-.42,.26-.65,.04-.29,0-.53-.09-.73-.1-.2-.26-.37-.47-.53-.22-.16-.47-.3-.79-.41-.31-.13-.67-.25-1.07-.4-.59-.15-1.12-.36-1.61-.62-.49-.25-.92-.54-1.28-.89-.36-.34-.64-.73-.85-1.17-.21-.43-.31-.91-.31-1.45,0-.09,.01-.19,.02-.29,0-.09,0-.2,.03-.3,.09-.77,.34-1.46,.77-2.06,.41-.61,.94-1.1,1.6-1.52,.67-.42,1.44-.74,2.32-.95,.89-.23,1.87-.33,2.94-.33,.55,0,1.08,.03,1.59,.09,.52,.07,.99,.15,1.44,.26s.86,.22,1.25,.34c.38,.12,.73,.24,1.02,.35l-1.21,3.29c-.76-.24-1.44-.46-2.07-.64-.63-.19-1.25-.27-1.87-.27-.7,0-1.23,.12-1.57,.37-.33,.26-.55,.63-.6,1.11-.07,.35,.04,.69,.3,1.04,.24,.33,.75,.63,1.49,.87,1.61,.48,2.8,1.09,3.54,1.84,.75,.75,1.11,1.61,1.11,2.58,0,.08,0,.17,0,.25,0,.08-.02,.16-.03,.24Z"/>
        </g>
        <g>
          <path class="cls-8" d="M92.55,100.86c-.12,1.02-.42,1.93-.9,2.74-.48,.81-1.11,1.5-1.86,2.07-.77,.56-1.65,1-2.66,1.3-1.01,.3-2.1,.46-3.28,.46-.62,0-1.25-.03-1.9-.12-.65-.08-1.28-.19-1.91-.34-.65-.14-1.43-.65-2.01-.86-.58-.21-2.01-1.24-2.49-1.48l2.49-3.45c1.14,.87,2.29,1.63,3.2,1.83,.91,.2,3.81,.82,4.79-.28,.46-.5,.87-.98,.97-1.77,.04-.41,0-.78-.1-1.1-.11-.33-.31-.63-.55-.89-.24-.27-.56-.51-.94-.72-.37-.22-.8-.44-1.27-.65-.91-.34-1.71-.68-2.41-1.07-.7-.38-1.29-.8-1.78-1.27-.49-.46-.85-.98-1.09-1.56-.26-.57-.38-1.23-.38-1.96,0-.27,.02-.55,.05-.86,.12-1.02,.41-1.95,.89-2.78,.46-.82,1.07-1.52,1.8-2.09,.74-.56,1.61-1,2.58-1.31,1-.31,2.08-.46,3.28-.46,.63,0,1.27,.05,1.92,.15,.65,.1,1.28,.24,1.87,.4,.82,.22,1.35,.42,1.65,.54,.5,.2,1.69,.73,2.03,.93l-1.78,3.65c-1.04-.35-2.4-1.07-3.27-1.26-.85-.19-1.7-.28-2.53-.28-.87,0-1.55,.21-2.02,.63-.47,.41-.74,.99-.84,1.73-.02,.09-.03,.17-.04,.26v.26c0,.6,.43,.96,.78,1.4,.34,.44,1.06,.73,1.97,1.09,1.09,.38,1.92,.76,2.7,1.16,.79,.39,1.41,1.01,1.9,1.47,.5,.46,1.31,1.97,1.19,3.49,0,.16,0,.32-.01,.49-.02,.16-.03,.33-.06,.51Z"/>
          <path class="cls-8" d="M93.88,99.08c.22-1.33,.64-2.51,1.23-3.56,.59-1.03,1.33-1.92,2.2-2.63,.87-.71,1.86-1.24,2.99-1.62,1.1-.37,2.31-.56,3.62-.56,1.13,0,2.15,.16,3.07,.46,.92,.3,1.71,.74,2.36,1.3,.67,.57,1.17,1.26,1.53,2.09,.36,.83,.54,1.77,.54,2.8,0,.28,0,.56-.03,.84-.03,.29-.07,.58-.12,.87-.23,1.34-.66,2.53-1.26,3.56-.62,1.05-1.37,1.92-2.25,2.62-.9,.71-1.91,1.25-3.06,1.61-1.14,.37-2.38,.56-3.68,.56-1.12,0-2.12-.15-3.02-.45-.89-.3-1.65-.73-2.3-1.29-.63-.57-1.13-1.25-1.46-2.06-.34-.82-.51-1.74-.51-2.77,0-.28,0-.57,.03-.86,.02-.3,.06-.6,.13-.92Zm4.99,.38c-.08,.37-.14,.7-.17,1.01-.04,.3-.06,.59-.06,.87,0,.54,.07,1,.21,1.38,.13,.37,.33,.68,.58,.91,.24,.23,.54,.41,.89,.51,.35,.1,.73,.16,1.15,.16,.56,0,1.07-.09,1.56-.26,.49-.18,.96-.45,1.39-.84,.44-.39,.81-.89,1.14-1.5,.32-.6,.57-1.35,.75-2.23,.13-.68,.21-1.27,.21-1.78,0-.56-.08-1.04-.23-1.43-.14-.4-.36-.71-.63-.95-.28-.25-.59-.42-.96-.53-.37-.1-.78-.15-1.23-.15-.51,0-1,.09-1.48,.26-.47,.18-.91,.45-1.31,.82-.4,.39-.74,.89-1.07,1.5-.31,.62-.54,1.36-.72,2.26Z"/>
          <path class="cls-8" d="M51.09,100.42c-.01,.13-.29,1.51,.51,2.71,.43,.65,2.06,1.26,3.14,1.22,3.32-.13,4.52-1.18,5.05-1.33l.76,2.78c-.73,.41-2.27,1.09-3.28,1.31-1.02,.22-2.08,.33-3.21,.33-1.25,0-2.34-.14-3.31-.44-.98-.28-1.8-.7-2.48-1.26-.67-.55-1.19-1.22-1.54-2.03-.36-.8-.53-1.72-.53-2.76,0-.27,0-.56,.03-.85,.01-.29,.06-.58,.12-.89,.24-1.38,.65-2.6,1.22-3.66,.57-1.06,1.27-1.94,2.13-2.66,.85-.72,1.82-1.26,2.92-1.63,1.1-.36,2.31-.54,3.6-.54,.85,0,1.62,.13,2.32,.37,.71,.25,1.31,.6,1.8,1.05,.5,.46,.89,1.01,1.16,1.65,.29,.64,.44,1.37,.44,2.16,0,.4-.03,.82-.12,1.25l-.48,2.68-10.26,.53Zm2.32-5.87c-.27,.25-.66,.68-.87,1.08-.22,.41-.55,.81-.79,1.97l5.77-.25c.43-1.54-.08-2.49-.35-2.85-1.02-1.3-3.5-.22-3.76,.04Z"/>
          <path class="cls-8" d="M38.49,106.01c-.35,.23-.7,.43-1.06,.61-.35,.19-.73,.34-1.12,.46-.4,.12-.84,.21-1.32,.28-.46,.07-.99,.09-1.57,.09-.82,0-1.56-.14-2.2-.44-.66-.28-1.21-.7-1.65-1.24-.45-.55-.8-1.2-1.05-1.97-.24-.77-.36-1.64-.36-2.61,0-.33,.01-.68,.05-1.05,.03-.35,.07-.71,.13-1.09,.22-1.3,.57-2.46,1.05-3.48,.47-1.04,1.06-1.91,1.73-2.62,.68-.72,1.46-1.27,2.32-1.65,.87-.38,1.79-.57,2.79-.57s1.85,.1,2.53,.31c.68,.2,1.94,.53,2.46,.93,0,0,.71-2.61,1.16-5.05,.37-1.99,.48-3.71,.48-3.71h4.01s.31,.74-.3,4.38c-.27,1.68-3.48,15.74-3.56,16.57-.16,1.53,.32,2.98,.32,2.98h-4.79l-.05-1.12Zm-5.39-6.96c-.07,.4-.13,.79-.18,1.13-.04,.35-.06,.68-.06,.99,0,.91,.19,1.6,.58,2.06,.38,.46,1.09,1.02,1.97,1.02,.54,0,1.15-.04,1.68-.21,.54-.16,.86-.58,1.41-1.01l1.86-8.38c-.38-.28-.9-.26-1.38-.43-.47-.16-1.25,.03-1.8,.03-1.14,0-2.04,.41-2.68,1.22-.65,.81-1.13,2.01-1.42,3.59Z"/>
          <path class="cls-8" d="M66.95,83.2c-.08,1.52-.36,4.48-1.25,8.16-1.21,5.04-1.94,8.06-2,8.71-.41,3.8-.52,5.85-.56,7.09h4.45c.03-1.25,.16-3.29,.55-7.09,.07-.64,.8-3.67,2.02-8.71,.89-3.68,1.17-6.64,1.24-8.16h-4.45Z"/>
          <path class="cls-8" d="M116.12,83.2c-.08,1.52-.35,4.48-1.25,8.16-1.21,5.04-1.94,8.06-2,8.71-.41,3.8-.53,5.85-.57,7.09h4.45c.04-1.25,.16-3.29,.56-7.09,.06-.64,.79-3.67,2.01-8.71,.89-3.68,1.17-6.64,1.25-8.16h-4.45Z"/>
        </g>
        <g>
          <path class="cls-8" d="M21.36,122.22c-10.68,0-19.36-8.68-19.36-19.35V45.37C2.43,21.44,34.73,2,74.01,2s72,19.64,72,43.79c0,.21,0,.43-.02,.65v.41s.02,56.01,.02,56.01c0,10.67-8.69,19.35-19.36,19.35H21.36ZM74.01,12.01c-34.19,0-62,15.16-62,33.79,0,.13,0,.26,.02,.4l.02,.37-.04,2.05v54.26c0,5.16,4.2,9.35,9.36,9.35H126.64c5.16,0,9.36-4.19,9.36-9.35V48.54l-.03-1.91c0-.29,.01-.45,.02-.6,0-.12,.01-.18,.01-.24,0-18.63-27.81-33.79-62-33.79Z"/>
          <path class="cls-2" d="M74.01,4c38.6,0,70,18.75,70,41.79,0,.21,0,.43-.02,.64l.02,.49v55.95c0,9.57-7.79,17.35-17.36,17.35H21.36c-9.57,0-17.36-7.79-17.36-17.35V45.37C4.41,22.55,35.81,4,74.01,4M21.36,114.22H126.64c6.26,0,11.36-5.09,11.36-11.35V48.54l-.03-1.95c0-.19,.01-.32,.02-.45,0-.12,.02-.24,.02-.36,0-19.73-28.71-35.79-64-35.79S10.01,26.06,10.01,45.79c0,.19,.01,.38,.03,.58v.21s-.03,1.99-.03,1.99v54.3c0,6.26,5.09,11.35,11.36,11.35M74.01,0C54.83,0,36.64,4.5,22.8,12.68,8.32,21.24,.22,32.82,0,45.3v.04s0,.04,0,.04v57.5c0,11.77,9.58,21.35,21.36,21.35H126.64c11.78,0,21.36-9.58,21.36-21.35V46.92s0-.07,0-.07v-.07s-.01-.34-.01-.34c0-.22,.01-.44,.01-.66,0-12.61-7.98-24.32-22.48-32.97C111.69,4.55,93.39,0,74.01,0h0ZM14.01,48.61l.04-1.95v-.12s0-.12,0-.12v-.21s-.01-.05-.01-.05v-.05c-.01-.13-.02-.22-.02-.31,0-17.23,27.48-31.79,60-31.79s60,14.56,60,31.79v.05s0,.07,0,.07c-.01,.18-.02,.36-.02,.62v.07s0,.07,0,.07l.03,1.91v54.29c0,4.05-3.3,7.35-7.36,7.35H21.36c-4.06,0-7.36-3.3-7.36-7.35V48.61h0Z"/>
        </g>
        <path class="cls-8" d="M126.64,118.8H21.36c-8.79,0-15.95-7.15-15.95-15.94V45.37C5.81,23.3,36.42,5.42,74.01,5.42s68.58,18.11,68.58,40.37c0,.21,0,.42-.02,.62l.02,.55v55.9c0,8.79-7.15,15.94-15.95,15.94ZM8.59,48.54v54.32c0,7.04,5.72,12.77,12.77,12.77H126.64c7.05,0,12.78-5.73,12.78-12.77V48.54l-.03-1.97c0-.26,.03-.52,.03-.78,0-20.51-29.34-37.2-65.41-37.2S8.59,25.28,8.59,45.79c0,.25,.02,.5,.04,.77"/>
        <path class="cls-6" d="M17.91,49.59s-1.48-2.68-2.39-4.65c-.91-1.97-1.68-5.42-1.68-5.42,0,0,11.75-3.22,26.73-4.49,12.91-1.1,32.23,.74,44.4,3.19,26.27,5.27,40.86,21.14,40.86,21.14,0,0-8.18-5.09-19-9.43-7.94-3.18-17.97-5.63-29.41-7.04-26.34-3.22-59.51,6.69-59.51,6.69Z"/>
        <g>
          <path class="cls-1" d="M119.57,40.3c-4.86,1.47-9.95,4.22-9.95,4.22l4.24,2.94h.28s6.09-4.14,9.15-5.47c3.05-1.33,11.95-5.48,11.95-5.48-7.87,1.69-7.86,1.42-15.68,3.8Z"/>
          <path class="cls-5" d="M133.93,34.7c-8.65,0-9.3-.12-20.15,1.49-5.21,.77-15.18,3.76-15.18,3.76,0,0,3.78,.85,4.98,1.62,1.19,.76,3.34,1.26,3.34,1.26,0,0,6.61-3.27,11.44-4.71,7.59-2.27,15.57-3.42,15.57-3.42Z"/>
        </g>
        <path class="cls-7" d="M59.47,26.86c-13.05-3.51-24.6-4.72-28.92-5.07-3.68,1.85-6.97,4.05-9.63,6.69-2.86,2.83-5.77,7.45-5.77,7.45,0,0,23.35-4,33.21-3.8,20.96,.42,33.53,2.92,36.68,3.61-4.13-1.8-13.58-5.67-25.57-8.88Z"/>
        <path class="cls-4" d="M86.29,28.06c-5.96-6.22-12.95-12.31-16.16-15.03-1.92,.1-3.85,.23-5.85,.43-1.94,.2-3.91,.43-5.86,.69,5.75,2.67,16.62,7.93,22.38,12.3,5.17,3.92,9.5,7.08,11.97,8.85,.1-.01,.22-.03,.33-.03-1.9-2.04-5.09-5.42-6.8-7.21Z"/>
        <path class="cls-4" d="M89.03,13.59c-1.61-.19-3.26-.34-4.97-.46,1.59,2.77,4.44,7.75,6.66,11.56,2.25,3.84,4.59,8.03,5.81,10.24,.02,0,.04,0,.06,0-.56-1.4-1.14-2.98-1.56-4.39-.79-2.67-4.26-12.22-5.99-16.94Z"/>
        <path class="cls-4" d="M98.25,15.05l3.16,.35s.07,4.15,0,7.25c-.07,3.1-1.26,8.66-1.26,8.66,0,0-.28-6.35-.85-9.44-.56-3.09-1.05-6.81-1.05-6.81Z"/>
        <path class="cls-4" d="M104.72,34.03s3.62-5.77,4.9-8.08c1.28-2.33,3.82-6.82,3.82-6.82l-3.37-1.28s-1.28,4.67-1.9,6.17c-.63,1.5-3.45,10.01-3.45,10.01Z"/>
        <path class="cls-4" d="M112.75,33.75s1.84,.21,3.53-.98c1.67-1.19,8.99-7.17,8.99-7.17l-3.38-2.42s-2.43,2.49-3.54,4.11c-1.1,1.62-5.6,5.98-5.6,5.98"/>
      </g>
      <path class="cls-2" d="M74.01,63.49l-.02-1.97c0-.27,.02-.52,.02-.78"/>
    </g>
  </g>
</svg>